<svg width="176" height="67" viewBox="0 0 176 67" fill="none" xmlns="http://www.w3.org/2000/svg">
<path d="M1 12.0544C1 12.0544 30.2125 -12.818 53 12.0544C75.7875 36.9269 93.9315 -12.8178 115 12.0544C136.069 36.9267 175 12.0544 175 12.0544M1 33.0581C1 33.0581 30.2125 8.18565 53 33.0581C75.7875 57.9306 93.9315 8.18587 115 33.0581C136.069 57.9303 175 33.0581 175 33.0581M1 54.9457C1 54.9457 30.2125 30.0732 53 54.9457C75.7875 79.8181 93.9315 30.0734 115 54.9457C136.069 79.8179 175 54.9457 175 54.9457" stroke="#1188EE" stroke-width="2"/>
</svg>
